<?xml version="1.0" standalone="no"?>
<!DOCTYPE svg PUBLIC "-//W3C//DTD SVG 20010904//EN"
 "http://www.w3.org/TR/2001/REC-SVG-20010904/DTD/svg10.dtd">
<svg version="1.0" xmlns="http://www.w3.org/2000/svg"
 width="156.000000pt" height="156.000000pt" viewBox="0 0 156.000000 156.000000"
 preserveAspectRatio="xMidYMid meet">
<metadata>
Created by potrace 1.14, written by Peter Selinger 2001-2017
</metadata>
<g transform="translate(0.000000,156.000000) scale(0.100000,-0.100000)"
fill="#000000" stroke="none">
<path d="M200 1490 c0 -16 -3 -30 -7 -31 -36 -4 -69 -11 -74 -17 -4 -4 -12
-77 -19 -162 -6 -85 -13 -175 -15 -200 -2 -25 -6 -81 -9 -125 -6 -76 -11 -132
-21 -255 -3 -30 -7 -91 -10 -135 -3 -44 -8 -98 -10 -120 -2 -22 -7 -80 -10
-130 -4 -49 -10 -128 -14 -174 -6 -70 -4 -88 8 -100 14 -14 100 -16 767 -15
413 0 756 4 763 8 12 8 10 115 -4 231 -2 17 -6 64 -9 105 -6 81 -43 531 -51
620 -2 30 -7 89 -10 130 -3 41 -8 95 -10 120 -2 25 -7 79 -10 120 -4 41 -11
79 -15 84 -5 4 -22 9 -39 10 -26 1 -33 6 -39 31 l-8 30 -577 3 -577 2 0 -30z"/>
</g>
</svg>
